<svg id="Capa_1" enable-background="new 0 0 512 512" height="512" viewBox="0 0 512 512" width="512" xmlns="http://www.w3.org/2000/svg"><g><g><path d="m512 256c0 68.38-26.63 132.67-74.98 181.02s-112.64 74.98-181.02 74.98-132.67-26.63-181.02-74.98c-48.35-48.35-74.98-112.64-74.98-181.02s26.63-132.67 74.98-181.02 112.64-74.98 181.02-74.98 132.67 26.63 181.02 74.98 74.98 112.64 74.98 181.02z" fill="#f0f7ff"/></g><path d="m512 256c0 68.38-26.63 132.67-74.98 181.02s-112.64 74.98-181.02 74.98v-512c68.38 0 132.67 26.63 181.02 74.98s74.98 112.64 74.98 181.02z" fill="#dfe7f4"/><path d="m369.84 306.2c17.588 17.588 17.559 46.101 0 63.64-17.57 17.58-46.06 17.58-63.64 0l-50.2-50.2-50.2 50.2c-17.588 17.588-46.1 17.56-63.64 0-17.58-17.57-17.58-46.06 0-63.64l50.2-50.2-50.2-50.2c-17.587-17.587-17.56-46.1 0-63.64 17.57-17.58 46.06-17.58 63.64 0l50.2 50.2 50.2-50.2c17.587-17.587 46.1-17.56 63.64 0 17.58 17.57 17.58 46.06 0 63.64l-50.2 50.2z" fill="#ff4d4d"/><path d="m369.84 306.2c17.588 17.588 17.559 46.101 0 63.64-17.57 17.58-46.06 17.58-63.64 0l-50.2-50.2v-127.28l50.2-50.2c17.587-17.587 46.1-17.56 63.64 0 17.58 17.57 17.58 46.06 0 63.64l-50.2 50.2z" fill="#cd0000"/></g></svg>