<?xml version="1.0" encoding="iso-8859-1"?>
<!-- Generator: Adobe Illustrator 19.0.0, SVG Export Plug-In . SVG Version: 6.00 Build 0)  -->
<svg version="1.1" id="Capa_1" xmlns="http://www.w3.org/2000/svg" xmlns:xlink="http://www.w3.org/1999/xlink" x="0px" y="0px"
	 viewBox="0 0 512 512" style="enable-background:new 0 0 512 512;" xml:space="preserve">
<g>
	<g>
		<path d="M79.496,439.279c-19.868,0-36.032,16.164-36.032,36.031s16.164,36.031,36.032,36.031
			c19.867,0,36.031-16.164,36.031-36.031S99.364,439.279,79.496,439.279z M79.496,496.318c-11.585,0-21.009-9.424-21.009-21.008
			s9.425-21.008,21.009-21.008s21.008,9.424,21.008,21.008S91.081,496.318,79.496,496.318z"/>
	</g>
</g>
<g>
	<g>
		<path d="M475.968,81.807c-19.867,0-36.031,16.164-36.031,36.031s16.164,36.031,36.031,36.031
			c19.868,0,36.032-16.164,36.032-36.031S495.836,81.807,475.968,81.807z M475.968,138.846c-11.585,0-21.008-9.424-21.008-21.008
			s9.424-21.008,21.008-21.008c11.585,0,21.009,9.424,21.009,21.008S487.553,138.846,475.968,138.846z"/>
	</g>
</g>
<g>
	<g>
		<path d="M467.176,439.326c-19.868,0-36.032,16.164-36.032,36.031s16.164,36.031,36.032,36.031
			c19.867,0,36.031-16.164,36.031-36.031S487.043,439.326,467.176,439.326z M467.176,496.365c-11.585,0-21.009-9.424-21.009-21.008
			s9.425-21.008,21.009-21.008s21.008,9.424,21.008,21.008S478.76,496.365,467.176,496.365z"/>
	</g>
</g>
<g>
	<g>
		<path d="M240.17,104.786c-2.647-4.002-7.249-6.116-12.013-5.511l-14.872,1.884c-4.115,0.521-7.03,4.281-6.508,8.396
			c0.523,4.116,4.289,7.031,8.396,6.508l9.839-1.247l-30.796,52.822c-2.074,3.559-2.264,7.91-0.509,11.637l26.052,55.31
			l-59.75-12.965c-4.027-0.873-8.224,0.29-11.226,3.112L104.23,266.6l-6.133-60.83c-0.413-4.1-2.816-7.733-6.429-9.718
			L38.08,166.618l55.959-24.631c3.772-1.661,6.483-5.069,7.254-9.117l11.433-60.062l40.716,45.609
			c2.744,3.076,6.822,4.603,10.913,4.083l3.922-0.497c4.115-0.522,7.03-4.281,6.508-8.396c-0.521-4.116-4.287-7.03-8.396-6.508
			l-2.616,0.331l-43.22-48.412c-3.197-3.579-8.057-5.007-12.682-3.726s-8.056,5.007-8.954,9.723l-12.137,63.751l-59.398,26.144
			c-4.394,1.933-7.253,6.113-7.463,10.909s2.273,9.21,6.481,11.522l56.881,31.243l6.51,64.57c0.482,4.776,3.574,8.788,8.07,10.47
			c1.444,0.541,2.937,0.804,4.415,0.804c3.12,0,6.17-1.176,8.543-3.405l47.292-44.443l63.42,13.762
			c4.695,1.018,9.463-0.683,12.452-4.44c2.989-3.757,3.574-8.788,1.528-13.129l-27.653-58.711l32.687-56.065
			C242.964,113.852,242.82,108.789,240.17,104.786z"/>
	</g>
</g>
<g>
	<g>
		<path d="M280.133,406.412l-27.898-31.385l10.037-40.773c1.148-4.661-0.42-9.477-4.091-12.569
			c-3.673-3.093-8.685-3.817-13.083-1.893l-38.47,16.835l-35.677-22.147c-4.079-2.532-9.144-2.529-13.217,0.008
			c-4.075,2.537-6.315,7.08-5.844,11.858l4.123,41.789l-32.087,27.087c-3.669,3.096-5.231,7.913-4.078,12.573
			c1.153,4.66,4.782,8.193,9.471,9.222l41.019,8.993l15.845,38.888c1.813,4.444,5.912,7.418,10.699,7.762
			c0.308,0.022,0.613,0.033,0.917,0.033c4.437,0,8.508-2.315,10.778-6.194l10.064-17.178c2.096-3.579,0.894-8.18-2.685-10.278
			c-3.579-2.097-8.18-0.896-10.279,2.684l-7.499,12.802l-14.428-35.409c-1.554-3.816-4.885-6.621-8.912-7.504l-37.348-8.188
			l29.216-24.664c3.15-2.657,4.788-6.692,4.385-10.795l-3.755-38.051l32.486,20.166c3.503,2.174,7.847,2.486,11.622,0.833
			l35.028-15.328l-9.14,37.126c-0.986,4.003,0.061,8.233,2.799,11.31l25.403,28.578l-19.614,1.43c-4.138,0.3-7.248,3.9-6.947,8.037
			c0.301,4.138,3.927,7.257,8.037,6.946l24.675-1.799c4.787-0.35,8.884-3.33,10.689-7.777
			C284.182,414.992,283.323,410,280.133,406.412z"/>
	</g>
</g>
<g>
	<g>
		<path d="M470.444,226.273l-49.165-25.626l-6.762-55.029v-0.001c-0.587-4.764-3.766-8.707-8.298-10.291
			c-4.531-1.583-9.473-0.478-12.899,2.884l-39.565,38.841l-54.425-10.573c-4.717-0.914-9.445,0.889-12.351,4.709
			c-2.906,3.82-3.383,8.863-1.244,13.16l24.713,49.631l-26.874,48.494c-2.326,4.198-2.072,9.257,0.663,13.202
			c2.735,3.944,7.388,5.954,12.13,5.248l54.839-8.166l37.816,40.544c2.416,2.591,5.711,3.989,9.119,3.989
			c1.211,0,2.437-0.177,3.642-0.539c4.598-1.382,7.947-5.183,8.741-9.916l9.179-54.678l50.247-23.436
			c4.351-2.029,7.119-6.271,7.224-11.07C477.278,232.851,474.7,228.492,470.444,226.273z M412.159,259.099
			c-3.736,1.742-6.372,5.208-7.054,9.272l-8.557,50.973l-35.252-37.796c-2.387-2.56-5.711-3.982-9.156-3.982
			c-0.613,0-1.23,0.045-1.845,0.139l-51.122,7.613l25.052-45.208c1.999-3.607,2.095-7.962,0.257-11.649l-23.038-46.268l50.737,9.857
			c4.04,0.784,8.216-0.469,11.158-3.356l36.884-36.208l6.304,51.298c0.502,4.09,2.984,7.67,6.639,9.577l45.834,23.889
			L412.159,259.099z"/>
	</g>
</g>
<g>
	<g>
		<path d="M32.893,29.255c-14.998,0-27.2,12.201-27.2,27.198s12.202,27.199,27.2,27.199c14.997,0,27.198-12.203,27.198-27.199
			S47.891,29.255,32.893,29.255z M32.893,68.631c-6.714,0-12.177-5.462-12.177-12.177s5.462-12.177,12.177-12.177
			c6.713,0,12.176,5.461,12.176,12.176S39.606,68.63,32.893,68.631z"/>
	</g>
</g>
<g>
	<g>
		<path d="M458.905,329.585c-14.997,0-27.199,12.202-27.199,27.2c0,14.998,12.202,27.199,27.199,27.199s27.198-12.202,27.198-27.199
			C486.104,341.786,473.902,329.585,458.905,329.585z M458.905,368.961c-6.714,0-12.177-5.462-12.177-12.177
			s5.462-12.177,12.177-12.177c6.713,0,12.176,5.462,12.176,12.177S465.618,368.961,458.905,368.961z"/>
	</g>
</g>
<g>
	<g>
		<path d="M325.107,90.638c-14.997,0-27.198,12.202-27.198,27.2c0,14.998,12.201,27.199,27.198,27.199s27.199-12.202,27.199-27.199
			S340.104,90.638,325.107,90.638z M325.107,130.014c-6.713,0-12.176-5.462-12.176-12.177s5.462-12.177,12.176-12.177
			c6.714,0,12.177,5.462,12.177,12.177S331.821,130.014,325.107,130.014z"/>
	</g>
</g>
<g>
	<g>
		<path d="M281.261,0.612c-14.997,0-27.199,12.202-27.199,27.199c0,14.998,12.202,27.2,27.199,27.2s27.199-12.202,27.199-27.2
			C308.461,12.814,296.258,0.612,281.261,0.612z M281.261,39.988c-6.714,0-12.177-5.462-12.177-12.177
			c0-6.714,5.462-12.177,12.177-12.177s12.177,5.462,12.177,12.177C293.438,34.526,287.975,39.988,281.261,39.988z"/>
	</g>
</g>
<g>
	<g>
		<path d="M27.199,261.856C12.203,261.856,0,274.058,0,289.056c0,14.998,12.203,27.2,27.199,27.2
			c14.998,0,27.199-12.202,27.199-27.2C54.398,274.058,42.196,261.856,27.199,261.856z M27.199,301.233
			c-6.714,0-12.177-5.462-12.177-12.177s5.462-12.177,12.177-12.177c6.713,0,12.176,5.462,12.176,12.177
			S33.913,301.233,27.199,301.233z"/>
	</g>
</g>
<g>
	<g>
		<path d="M350.888,419.591c-14.997,0-27.199,12.202-27.199,27.2c0,14.998,12.202,27.199,27.199,27.199
			c14.997,0,27.199-12.202,27.199-27.199S365.885,419.591,350.888,419.591z M350.888,458.967c-6.714,0-12.177-5.462-12.177-12.177
			s5.462-12.177,12.177-12.177c6.713,0,12.176,5.462,12.176,12.177S357.602,458.967,350.888,458.967z"/>
	</g>
</g>
<g>
</g>
<g>
</g>
<g>
</g>
<g>
</g>
<g>
</g>
<g>
</g>
<g>
</g>
<g>
</g>
<g>
</g>
<g>
</g>
<g>
</g>
<g>
</g>
<g>
</g>
<g>
</g>
<g>
</g>
</svg>
