<svg id="Solid" height="512" viewBox="0 0 512 512" width="512" xmlns="http://www.w3.org/2000/svg"><path fill="#bfc1c8" d="m256 232a24 24 0 1 0 24 24 24.028 24.028 0 0 0 -24-24zm0 32a8 8 0 1 1 8-8 8 8 0 0 1 -8 8z"/><path fill="#bfc1c8" d="m237.36 145.577a111.76 111.76 0 0 0 -51.544 23.169l40.172 22.318z"/><path fill="#bfc1c8" d="m217.676 217.676 3.635-10.907-32.72-18.178 18.178 32.72z"/><path fill="#bfc1c8" d="m256 216a39.771 39.771 0 0 1 23.439 7.617l-7.029-21.087c-.064-.194-.122-.391-.171-.59l-16.239-64.956-16.239 64.956c-.049.2-.107.4-.171.59l-7.029 21.087a39.771 39.771 0 0 1 23.439-7.617z"/><path fill="#bfc1c8" d="m326.184 168.746a111.76 111.76 0 0 0 -51.544-23.169l11.372 45.487z"/><path fill="#bfc1c8" d="m323.409 188.591-32.72 18.178 3.635 10.907 10.907 3.635z"/><path fill="#bfc1c8" d="m366.423 237.36a111.76 111.76 0 0 0 -23.169-51.544l-22.318 40.172z"/><path fill="#bfc1c8" d="m168.746 185.816a111.76 111.76 0 0 0 -23.169 51.544l45.487-11.372z"/><path fill="#bfc1c8" d="m185.816 343.254a111.76 111.76 0 0 0 51.544 23.169l-11.372-45.487z"/><path fill="#bfc1c8" d="m145.577 274.64a111.76 111.76 0 0 0 23.169 51.544l22.318-40.172z"/><path fill="#bfc1c8" d="m202.53 272.41 21.087 7.029a39.872 39.872 0 0 1 0-46.878l-21.087 7.029c-.194.064-.391.122-.59.171l-64.956 16.239 64.956 16.239c.199.049.396.107.59.171z"/><path fill="#bfc1c8" d="m272.41 309.47 7.029-21.087a39.872 39.872 0 0 1 -46.878 0l7.029 21.087c.064.194.122.391.171.59l16.239 64.956 16.239-64.956c.049-.199.107-.396.171-.59z"/><path fill="#bfc1c8" d="m188.591 323.409 32.72-18.178-3.635-10.907-10.907-3.635z"/><path fill="#bfc1c8" d="m309.47 239.59-21.087-7.029a39.872 39.872 0 0 1 0 46.878l21.087-7.029c.194-.064.391-.122.59-.171l64.956-16.239-64.956-16.239c-.199-.049-.396-.107-.59-.171z"/><path fill="#bfc1c8" d="m343.254 326.184a111.76 111.76 0 0 0 23.169-51.544l-45.487 11.372z"/><path fill="#bfc1c8" d="m294.324 294.324-3.635 10.907 32.72 18.178-18.178-32.72z"/><path fill="#bfc1c8" d="m274.64 366.423a111.76 111.76 0 0 0 51.544-23.169l-40.172-22.318z"/><path fill="#bfc1c8" d="m302.229 53.151a207.643 207.643 0 0 1 95.08 50.225l-26.966 26.967a8 8 0 0 0 11.314 11.314l26.95-26.949a207.647 207.647 0 0 1 46.112 79.66 8 8 0 1 0 15.281-4.736 224.472 224.472 0 0 0 -164.229-152.084 8 8 0 1 0 -3.542 15.6z"/><path fill="#bfc1c8" d="m206.229 37.548a224.472 224.472 0 0 0 -164.229 152.084 8 8 0 1 0 15.283 4.736 207.647 207.647 0 0 1 46.112-79.66l26.95 26.949a8 8 0 0 0 11.314-11.314l-26.966-26.967a207.643 207.643 0 0 1 95.08-50.225 8 8 0 1 0 -3.542-15.6z"/><path fill="#bfc1c8" d="m209.771 458.849a207.643 207.643 0 0 1 -95.08-50.225l26.966-26.967a8 8 0 1 0 -11.314-11.314l-26.95 26.949a207.647 207.647 0 0 1 -46.112-79.66 8 8 0 1 0 -15.281 4.736 224.472 224.472 0 0 0 164.229 152.084 8 8 0 1 0 3.542-15.6z"/><path fill="#bfc1c8" d="m464.729 312.358a8 8 0 0 0 -10.01 5.274 207.647 207.647 0 0 1 -46.112 79.66l-26.95-26.949a8 8 0 0 0 -11.314 11.314l26.966 26.967a207.643 207.643 0 0 1 -95.08 50.225 8 8 0 1 0 3.542 15.6 224.472 224.472 0 0 0 164.229-152.081 8 8 0 0 0 -5.271-10.01z"/><path fill="#bfc1c8" d="m256 432a8.009 8.009 0 0 1 8 8 8 8 0 0 0 16 0 24 24 0 1 0 -24 24 8 8 0 1 1 -8 8 8 8 0 0 0 -16 0 24 24 0 1 0 24-24 8 8 0 0 1 0-16z"/><path fill="#bfc1c8" d="m272 16a8 8 0 0 0 -8 8v30.111l-16.845-33.689a8 8 0 0 0 -15.155 3.578v64a8 8 0 0 0 16 0v-30.111l16.845 33.689a8 8 0 0 0 15.155-3.578v-64a8 8 0 0 0 -8-8z"/><path fill="#bfc1c8" d="m64.845 291.578a8 8 0 0 0 15.155-3.578v-64a8 8 0 0 0 -16 0v30.111l-8.845-17.689a8 8 0 0 0 -14.31 0l-8.845 17.689v-30.111a8 8 0 0 0 -16 0v64a8 8 0 0 0 15.155 3.578l16.845-33.689z"/><path fill="#bfc1c8" d="m488 264a8 8 0 0 0 0-16h-24v-16h24a8 8 0 0 0 0-16h-32a8 8 0 0 0 -8 8v64a8 8 0 0 0 8 8h32a8 8 0 0 0 0-16h-24v-16z"/></svg>